Coordinates
version=1
nRows=26
nColumns=24
inDegrees=yes

Units are S.I. units (second, meters, Newtons, ...)
Angles are in degrees.

endheader
time	pelvis_tilt	pelvis_list	pelvis_rotation	pelvis_tx	pelvis_ty	pelvis_tz	hip_flexion_r	hip_adduction_r	hip_rotation_r	knee_angle_r	ankle_angle_r	subtalar_angle_r	mtp_angle_r	hip_flexion_l	hip_adduction_l	hip_rotation_l	knee_angle_l	ankle_angle_l	subtalar_angle_l	mtp_angle_l	lumbar_extension	lumbar_bending	lumbar_rotation
      3.89000000	     -8.66850523	      2.86235510	     -7.83967938	     -0.66833760	     -0.04640366	      0.63771717	     -7.77475233	     -0.70509082	      4.16384907	    -12.05159386	     13.90792310	      1.46781229	      6.48893981	     37.33816472	     -1.84236593	    -21.17898370	    -15.78542488	     -0.39407542	     18.56035116	     -6.43283842	      5.44473929	     -2.20751381	     10.76318534
      3.89500000	     -8.68903308	      3.25834125	     -7.88742984	     -0.66100029	     -0.04747976	      0.63743819	     -7.87973144	     -1.23588226	      3.80307003	    -12.66239420	     13.92602611	      1.90908125	      6.62650546	     37.31676173	     -1.39433576	    -21.04547764	    -16.19095303	     -1.43394039	     17.60546773	     -4.94904663	      5.58503840	     -2.66126222	     10.76053995
      3.90000000	     -8.78159636	      3.67536154	     -7.96020702	     -0.65359043	     -0.04853702	      0.63725707	     -7.92375884	     -1.76997974	      3.72630066	    -13.23474836	     13.81245385	      2.10761998	      6.73486919	     37.41699173	     -1.00064191	    -21.05321211	    -16.73055776	     -2.46404268	     16.92779117	     -3.74194123	      5.82459350	     -3.13131437	     10.74227398
      3.90500000	     -8.86981761	      4.11752143	     -8.07761423	     -0.64622890	     -0.04950606	      0.63709995	     -7.91936186	     -2.33619223	      3.72282460	    -13.87952154	     13.62685443	      2.24098862	      6.84375017	     37.54472807	     -0.60689455	    -20.89971884	    -17.37244267	     -3.31695907	     16.23541107	     -3.37750567	      6.06112765	     -3.61979599	     10.80881632
      3.91000000	     -8.92763918	      4.57102396	     -7.99612757	     -0.63867845	     -0.05045122	      0.63671057	     -7.97080141	     -2.92041973	      3.30837267	    -14.53452387	     13.40720641	      2.60749268	      7.03461241	     37.68422504	     -0.08499255	    -20.59170578	    -18.03890788	     -4.34921413	     15.50442763	     -2.39733820	      6.27817399	     -4.15050876	     10.67366408
      3.91500000	     -9.01367796	      5.04368843	     -8.06963823	     -0.63124946	     -0.05130524	      0.63646999	     -7.91781535	     -3.52876061	      3.28971894	    -15.27172905	     13.09782537	      2.80856464	      7.19385896	     37.87429239	      0.35700970	    -20.26574318	    -18.78853347	     -5.18032102	     14.74199192	     -2.04343564	      6.52261394	     -4.67436239	     10.67027680
      3.92000000	     -9.08739063	      5.51407464	     -8.00864949	     -0.62368992	     -0.05213753	      0.63603604	     -7.87896227	     -4.14320818	      3.00602426	    -16.04824453	     12.72383636	      3.17030267	      7.43129434	     38.08988391	      0.88412193	    -19.79870417	    -19.59887336	     -5.97423080	     13.93406920	     -1.58839013	      6.76153905	     -5.20878942	     10.55225874
      3.92500000	     -9.14980820	      5.96633471	     -7.93943350	     -0.61613866	     -0.05290779	      0.63558686	     -7.82048559	     -4.74456144	      2.74287157	    -16.88352058	     12.26160087	      3.54573876	      7.71260038	     38.31942361	      1.39370091	    -19.32185736	    -20.47875170	     -6.65599235	     13.16627977	     -1.19670998	      6.98243199	     -5.72767509	     10.44803778
      3.93000000	     -9.21775329	      6.41535507	     -7.86200758	     -0.60853790	     -0.05361726	      0.63513586	     -7.71462603	     -5.34631005	      2.50556372	    -17.80093032	     11.68647954	      3.93466857	      8.03041092	     38.54925256	      1.90790127	    -18.81050489	    -21.37460205	     -7.19765525	     12.44407452	     -0.88798352	      7.21689960	     -6.24265149	     10.31419823
      3.93500000	     -9.26524176	      6.81184646	     -7.77306823	     -0.60092481	     -0.05429655	      0.63461450	     -7.58709953	     -5.91517720	      2.17135913	    -18.80326097	     11.02253251	      4.45247916	      8.46151845	     38.76690943	      2.39366418	    -18.29065118	    -22.32308934	     -7.56829888	     11.66644537	     -0.54383017	      7.42205084	     -6.69817607	     10.16911055
      3.94000000	     -9.33633572	      7.22186258	     -7.68771739	     -0.59327177	     -0.05490347	      0.63415725	     -7.38951709	     -6.48912566	      1.96830524	    -19.88547511	     10.22981764	      4.89395655	      8.85565475	     38.97801438	      2.88227097	    -17.82926213	    -23.24121408	     -7.81706679	     11.01818437	     -0.28931582	      7.66578931	     -7.17110655	     10.03398871
      3.94500000	     -9.38620723	      7.54717696	     -7.58160521	     -0.58569677	     -0.05545953	      0.63357650	     -7.15146796	     -7.00385540	      1.65613419	    -21.08383046	      9.34424191	      5.52864297	      9.37155000	     39.15682276	      3.32241663	    -17.36924780	    -24.17244607	     -7.91558266	     10.36590451	      0.03492377	      7.85655992	     -7.54570629	      9.88967144
      3.95000000	     -9.41905023	      7.84938533	     -7.46545887	     -0.57811657	     -0.05590605	      0.63300807	     -6.88742403	     -7.50228767	      1.37554381	    -22.35186065	      8.31635035	      6.17351160	      9.97661394	     39.27259351	      3.75046205	    -16.97539844	    -25.04879101	     -7.90640005	      9.82646657	      0.43716163	      8.02770383	     -7.90220269	      9.72884271
      3.95500000	     -9.43997359	      8.10989845	     -7.34891878	     -0.57059534	     -0.05624847	      0.63243576	     -6.57874532	     -7.96564813	      1.13679163	    -23.70360544	      7.14970997	      6.83272652	     10.62910779	     39.33041936	      4.14434070	    -16.64521128	    -25.86874294	     -7.78629272	      9.38213376	      0.89745509	      8.17058896	     -8.21445554	      9.57124366
      3.96000000	     -9.45589808	      8.35151084	     -7.21456695	     -0.56309807	     -0.05648466	      0.63184618	     -6.22398483	     -8.41834787	      0.90490185	    -25.12481122	      5.84612412	      7.51228719	     11.37481393	     39.32678801	      4.53729287	    -16.36706779	    -26.60292361	     -7.58960580	      9.01071074	      1.45258090	      8.30502656	     -8.51208335	      9.39954622
      3.96500000	     -9.44960335	      8.61004827	     -7.07315214	     -0.55562149	     -0.05658426	      0.63127049	     -5.83888553	     -8.89444636	      0.68237393	    -26.58731043	      4.37931679	      8.00422067	     12.47602607	     39.22693766	      4.96942598	    -16.11009090	    -27.19271807	     -7.40752833	      8.59969398	      2.30072569	      8.41916608	     -8.83102095	      9.23819368
      3.97000000	     -9.45132791	      8.79299971	     -6.94665102	     -0.54831645	     -0.05660553	      0.63069159	     -5.36500233	     -9.29852695	      0.52322436	    -28.16290850	      2.85132698	      8.68156660	     13.26265153	     39.10573486	      5.30241507	    -15.96288237	    -27.77312519	     -7.05111827	      8.42380997	      2.95263095	      8.51144290	     -9.06201168	      9.07775313
      3.97500000	     -9.42266455	      8.93302141	     -6.81027840	     -0.54112951	     -0.05650183	      0.63012180	     -4.87207843	     -9.65566396	      0.41715324	    -29.80101386	      1.26888921	      9.43273883	     13.74319280	     38.90820407	      5.59832583	    -15.86354063	    -28.30555751	     -6.55843866	      8.44050965	      3.41969986	      8.54712300	     -9.25501521	      8.88163174
      3.98000000	     -9.43880105	      9.16424431	     -6.68296327	     -0.53394892	     -0.05634402	      0.62951407	     -4.24953930	    -10.12246234	      0.29124433	    -31.48336776	     -0.37553582	      9.97673196	     14.72722268	     38.67823348	      6.00579818	    -15.73976854	    -28.62953326	     -6.19901198	      8.20309834	      4.25285049	      8.65997745	     -9.52919170	      8.75983536
      3.98500000	     -9.43548867	      9.34244741	     -6.55564818	     -0.52691823	     -0.05610978	      0.62896116	     -3.59090503	    -10.52210811	      0.22290231	    -33.22804048	     -1.98772015	     10.56105533	     15.35821212	     38.40595133	      6.33042687	    -15.73879969	    -28.95756634	     -5.68148770	      8.29453042	      4.87268401	      8.72669113	     -9.75192852	      8.59687245
      3.99000000	     -9.41194232	      9.51688043	     -6.39051652	     -0.51998673	     -0.05579860	      0.62841802	     -2.90872356	    -10.90497986	      0.14657692	    -35.02777988	     -3.52547338	     11.07775984	     15.66609392	     38.07600647	      6.67210948	    -15.73873492	    -29.23260751	     -5.08277768	      8.53283999	      5.26935026	      8.75488992	     -9.98909214	      8.37128647
      3.99500000	     -9.43406609	      9.74349287	     -6.26778029	     -0.51314587	     -0.05547376	      0.62789244	     -2.08893567	    -11.34108457	      0.13781441	    -36.88784023	     -4.94511367	     11.50440636	     16.03707755	     37.75291799	      7.04069385	    -15.78426887	    -29.40056433	     -4.52095755	      8.71205906	      5.70630224	      8.84613295	    -10.25925124	      8.21768775
      4.00000000	     -9.45580721	      9.96194075	     -6.15955672	     -0.50643162	     -0.05508623	      0.62738944	     -1.21210479	    -11.75013387	      0.19510428	    -38.77067143	     -6.25387964	     11.77596990	     16.42424989	     37.39710012	      7.39622164	    -15.84601194	    -29.49728672	     -3.97861136	      8.89234131	      6.17392266	      8.92744325	    -10.51682692	      8.07369094
      4.00500000	     -9.48278532	     10.19293597	     -6.04952486	     -0.49978177	     -0.05467435	      0.62693048	     -0.28339250	    -12.15833191	      0.25646990	    -40.67619044	     -7.39766312	     11.88151988	     16.77480393	     37.01624379	      7.76027624	    -15.93231145	    -29.53322338	     -3.42436642	      9.11767426	      6.62632612	      9.01770000	    -10.79270243	      7.93268872
      4.01000000	     -9.46066240	     10.41914412	     -5.88388750	     -0.49312916	     -0.05417929	      0.62646964	      0.58901869	    -12.54859084	      0.25223355	    -42.56497679	     -8.37402844	     11.77448021	     16.93577063	     36.54575939	      8.16924529	    -15.93746632	    -29.51671162	     -2.81709032	      9.40802288	      6.93092758	      9.04800665	    -11.08371234	      7.71182245
      4.01500000	     -9.48086838	     10.68161198	     -5.76385410	     -0.48662598	     -0.05369206	      0.62605512	      1.58662799	    -12.96266396	      0.32694781	    -44.49322663	     -9.14230235	     11.53086858	     17.10219436	     36.10651076	      8.57544543	    -16.01896114	    -29.44019750	     -2.28290559	      9.68156984	      7.22221061	      9.12446668	    -11.40124806	      7.53205753
